<svg xmlns="http://www.w3.org/2000/svg" viewBox="0 0 400 500">
  <defs>
    <linearGradient id="bg" x1="0" y1="0" x2="1" y2="1">
      <stop offset="0%" stop-color="#f5f0ff"/><stop offset="100%" stop-color="#ddd0f8"/>
    </linearGradient>
    <radialGradient id="sk" cx="45%" cy="38%" r="65%">
      <stop offset="0%" stop-color="#fde8c8"/><stop offset="100%" stop-color="#f0c09a"/>
    </radialGradient>
    <radialGradient id="bl" cx="50%" cy="50%" r="50%">
      <stop offset="0%" stop-color="#f9a0c0" stop-opacity="0.55"/>
      <stop offset="100%" stop-color="#f9a0c0" stop-opacity="0"/>
    </radialGradient>
    <radialGradient id="ey" cx="60%" cy="35%" r="60%">
      <stop offset="0%" stop-color="#7a5040"/><stop offset="100%" stop-color="#3a2018"/>
    </radialGradient>
  </defs>

  <rect width="400" height="500" fill="url(#bg)"/>

  <!-- 테두리 꽃 장식 (4 모서리) -->
  <!-- 왼쪽 상단 꽃다발 -->
  <g transform="translate(52,62)">
    <ellipse cx="0"  cy="0"  rx="20" ry="9" fill="#f9c6cb" transform="rotate(-40)"/>
    <ellipse cx="0"  cy="0"  rx="20" ry="9" fill="#f9c6cb" transform="rotate(20)"/>
    <ellipse cx="0"  cy="0"  rx="20" ry="9" fill="#f9c6cb" transform="rotate(80)"/>
    <circle  cx="0"  cy="0"  r="9"  fill="#fde8a0"/>
    <ellipse cx="-22" cy="8"  rx="16" ry="7" fill="#f0b0ba" transform="rotate(-60 -22 8)"/>
    <ellipse cx="-22" cy="8"  rx="16" ry="7" fill="#f0b0ba" transform="rotate(30 -22 8)"/>
    <circle  cx="-22" cy="8"  r="7"  fill="#fde8a0"/>
  </g>

  <!-- 오른쪽 상단 -->
  <g transform="translate(348,62)">
    <ellipse cx="0" cy="0" rx="20" ry="9" fill="#ddd0f8" transform="rotate(40)"/>
    <ellipse cx="0" cy="0" rx="20" ry="9" fill="#ddd0f8" transform="rotate(-20)"/>
    <ellipse cx="0" cy="0" rx="20" ry="9" fill="#ddd0f8" transform="rotate(-80)"/>
    <circle  cx="0" cy="0" r="9"  fill="#fde8a0"/>
    <ellipse cx="22" cy="8" rx="16" ry="7" fill="#c8b0e8" transform="rotate(60 22 8)"/>
    <ellipse cx="22" cy="8" rx="16" ry="7" fill="#c8b0e8" transform="rotate(-30 22 8)"/>
    <circle  cx="22" cy="8" r="7"  fill="#fde8a0"/>
  </g>

  <!-- 왼쪽 하단 -->
  <g transform="translate(52,438)">
    <ellipse cx="0" cy="0" rx="20" ry="9" fill="#f9c6cb" transform="rotate(40)"/>
    <ellipse cx="0" cy="0" rx="20" ry="9" fill="#f9c6cb" transform="rotate(-20)"/>
    <ellipse cx="0" cy="0" rx="20" ry="9" fill="#f9c6cb" transform="rotate(-80)"/>
    <circle  cx="0" cy="0" r="9" fill="#fde8a0"/>
  </g>

  <!-- 오른쪽 하단 -->
  <g transform="translate(348,438)">
    <ellipse cx="0" cy="0" rx="20" ry="9" fill="#ddd0f8" transform="rotate(-40)"/>
    <ellipse cx="0" cy="0" rx="20" ry="9" fill="#ddd0f8" transform="rotate(20)"/>
    <ellipse cx="0" cy="0" rx="20" ry="9" fill="#ddd0f8" transform="rotate(80)"/>
    <circle  cx="0" cy="0" r="9" fill="#fde8a0"/>
  </g>

  <!-- 옆면 꽃 -->
  <g transform="translate(28,250)">
    <ellipse cx="0" cy="0" rx="18" ry="8" fill="#f9c6cb" transform="rotate(0)"/>
    <ellipse cx="0" cy="0" rx="18" ry="8" fill="#f9c6cb" transform="rotate(60)"/>
    <ellipse cx="0" cy="0" rx="18" ry="8" fill="#f9c6cb" transform="rotate(120)"/>
    <circle  cx="0" cy="0" r="8" fill="#fde8a0"/>
  </g>
  <g transform="translate(372,250)">
    <ellipse cx="0" cy="0" rx="18" ry="8" fill="#ddd0f8" transform="rotate(0)"/>
    <ellipse cx="0" cy="0" rx="18" ry="8" fill="#ddd0f8" transform="rotate(60)"/>
    <ellipse cx="0" cy="0" rx="18" ry="8" fill="#ddd0f8" transform="rotate(120)"/>
    <circle  cx="0" cy="0" r="8" fill="#fde8a0"/>
  </g>

  <!-- 장식 도트 -->
  <circle cx="100" cy="32"  r="4" fill="#f9c6cb" opacity="0.5"/>
  <circle cx="300" cy="32"  r="4" fill="#ddd0f8" opacity="0.5"/>
  <circle cx="100" cy="468" r="4" fill="#f9c6cb" opacity="0.5"/>
  <circle cx="300" cy="468" r="4" fill="#ddd0f8" opacity="0.5"/>
  <text x="188" y="28" font-size="13" fill="#c8a0e0" opacity="0.6" font-family="sans-serif">✦</text>

  <!-- 몸체 -->
  <ellipse cx="200" cy="495" rx="100" ry="48" fill="#f5f0ff"/>

  <!-- 귀 -->
  <ellipse cx="87"  cy="288" rx="22" ry="26" fill="#f0c09a"/>
  <ellipse cx="313" cy="288" rx="22" ry="26" fill="#f0c09a"/>
  <ellipse cx="87"  cy="288" rx="13" ry="16" fill="#e8a880" opacity="0.4"/>
  <ellipse cx="313" cy="288" rx="13" ry="16" fill="#e8a880" opacity="0.4"/>

  <!-- 얼굴 -->
  <ellipse cx="200" cy="285" rx="115" ry="122" fill="url(#sk)"/>

  <!-- 머리카락 -->
  <ellipse cx="200" cy="170" rx="112" ry="42" fill="#8b5e3c"/>
  <path d="M85 240 Q89 158 200 150 Q311 158 315 240 Q283 190 200 186 Q117 190 85 240Z" fill="#8b5e3c"/>
  <ellipse cx="172" cy="162" rx="18" ry="13" fill="#7a5030"/>
  <ellipse cx="228" cy="162" rx="18" ry="13" fill="#7a5030"/>

  <!-- 볼 -->
  <ellipse cx="130" cy="313" rx="33" ry="20" fill="url(#bl)"/>
  <ellipse cx="270" cy="313" rx="33" ry="20" fill="url(#bl)"/>

  <!-- 왼쪽 눈 -->
  <ellipse cx="155" cy="272" rx="27" ry="25" fill="white"/>
  <ellipse cx="156" cy="274" rx="19" ry="20" fill="url(#ey)"/>
  <ellipse cx="156" cy="274" rx="12" ry="13" fill="#2a1510"/>
  <circle  cx="165" cy="266" r="7"  fill="white"/>
  <circle  cx="150" cy="278" r="3"  fill="white" opacity="0.5"/>
  <path d="M130 263 Q155 251 181 263" stroke="#8b5e3c" stroke-width="2.5" fill="none" stroke-linecap="round"/>

  <!-- 오른쪽 눈 -->
  <ellipse cx="245" cy="272" rx="27" ry="25" fill="white"/>
  <ellipse cx="246" cy="274" rx="19" ry="20" fill="url(#ey)"/>
  <ellipse cx="246" cy="274" rx="12" ry="13" fill="#2a1510"/>
  <circle  cx="255" cy="266" r="7"  fill="white"/>
  <circle  cx="240" cy="278" r="3"  fill="white" opacity="0.5"/>
  <path d="M220 263 Q245 251 271 263" stroke="#8b5e3c" stroke-width="2.5" fill="none" stroke-linecap="round"/>

  <!-- 눈썹 -->
  <path d="M133 247 Q155 238 177 244" stroke="#8b5e3c" stroke-width="3" fill="none" stroke-linecap="round"/>
  <path d="M223 244 Q245 238 267 247" stroke="#8b5e3c" stroke-width="3" fill="none" stroke-linecap="round"/>

  <!-- 코 -->
  <ellipse cx="200" cy="315" rx="11" ry="7" fill="#e8a080" opacity="0.3"/>

  <!-- 입 (부드러운 미소) -->
  <path d="M179 340 Q200 358 221 340" stroke="#e07575" stroke-width="3.5" fill="none" stroke-linecap="round"/>
  <ellipse cx="200" cy="349" rx="14" ry="7" fill="#f09090" opacity="0.25"/>

  <text x="200" y="478" text-anchor="middle" font-family="serif" font-size="14" fill="#9060c0" opacity="0.85">🌷 사랑스러운 우리 아가 🌷</text>
</svg>
