<svg xmlns="http://www.w3.org/2000/svg" viewBox="0 0 400 500">
  <defs>
    <linearGradient id="bg" x1="0" y1="0" x2="1" y2="1">
      <stop offset="0%" stop-color="#fffde8"/><stop offset="100%" stop-color="#fde8a0"/>
    </linearGradient>
    <radialGradient id="sk" cx="45%" cy="38%" r="65%">
      <stop offset="0%" stop-color="#fde8c8"/><stop offset="100%" stop-color="#f0c09a"/>
    </radialGradient>
    <radialGradient id="bl" cx="50%" cy="50%" r="50%">
      <stop offset="0%" stop-color="#f9a0a0" stop-opacity="0.55"/>
      <stop offset="100%" stop-color="#f9a0a0" stop-opacity="0"/>
    </radialGradient>
    <radialGradient id="ey" cx="60%" cy="35%" r="60%">
      <stop offset="0%" stop-color="#7a5040"/><stop offset="100%" stop-color="#3a2018"/>
    </radialGradient>
    <radialGradient id="b1" cx="35%" cy="30%" r="65%">
      <stop offset="0%" stop-color="#fde0e5"/><stop offset="100%" stop-color="#f9a0b0"/>
    </radialGradient>
    <radialGradient id="b2" cx="35%" cy="30%" r="65%">
      <stop offset="0%" stop-color="#fff8d0"/><stop offset="100%" stop-color="#fdd060"/>
    </radialGradient>
    <radialGradient id="b3" cx="35%" cy="30%" r="65%">
      <stop offset="0%" stop-color="#d8f8e8"/><stop offset="100%" stop-color="#80d8a8"/>
    </radialGradient>
  </defs>

  <rect width="400" height="500" fill="url(#bg)"/>

  <!-- 콘페티 -->
  <circle cx="40"  cy="60"  r="5" fill="#f9c6cb" opacity="0.6"/>
  <circle cx="360" cy="42"  r="5" fill="#80d8a8" opacity="0.5"/>
  <circle cx="25"  cy="200" r="4" fill="#fdd060"  opacity="0.5"/>
  <circle cx="375" cy="180" r="5" fill="#f9a0b0"  opacity="0.5"/>
  <rect x="50"  y="80" width="8" height="4" fill="#f9c6cb" opacity="0.5" transform="rotate(-30 54 82)"/>
  <rect x="332" y="68" width="8" height="4" fill="#80d8a8" opacity="0.5" transform="rotate(20 336 70)"/>
  <text x="28"  y="65"  font-size="16" fill="#fdd060"  opacity="0.65" font-family="sans-serif">✦</text>
  <text x="350" y="155" font-size="12" fill="#f9c6cb"  opacity="0.6"  font-family="sans-serif">✦</text>

  <!-- 풍선 3개 -->
  <ellipse cx="118" cy="88"  rx="44" ry="54" fill="url(#b1)"/>
  <ellipse cx="100" cy="68"  rx="11" ry="15" fill="white" opacity="0.28"/>
  <path d="M111 140 Q114 158 117 172 Q119 178 121 172 Q124 158 127 140" stroke="#f9a0b0" stroke-width="2" fill="none"/>

  <ellipse cx="200" cy="68"  rx="47" ry="57" fill="url(#b2)"/>
  <ellipse cx="182" cy="46"  rx="12" ry="16" fill="white" opacity="0.28"/>
  <path d="M193 123 Q197 142 200 158 Q202 164 204 158 Q207 142 207 123" stroke="#fdd060" stroke-width="2" fill="none"/>

  <ellipse cx="282" cy="88"  rx="44" ry="54" fill="url(#b3)"/>
  <ellipse cx="264" cy="68"  rx="11" ry="15" fill="white" opacity="0.28"/>
  <path d="M275 140 Q278 158 281 172 Q283 178 285 172 Q288 158 289 140" stroke="#80d8a8" stroke-width="2" fill="none"/>

  <!-- 줄 -->
  <path d="M117 172 Q130 215 145 255" stroke="#bbb" stroke-width="1.5" fill="none"/>
  <path d="M200 158 Q203 210 200 255"  stroke="#bbb" stroke-width="1.5" fill="none"/>
  <path d="M283 172 Q270 215 255 255" stroke="#bbb" stroke-width="1.5" fill="none"/>

  <!-- 손 암시 -->
  <ellipse cx="145" cy="262" rx="14" ry="12" fill="#f0c09a"/>
  <ellipse cx="200" cy="262" rx="14" ry="12" fill="#f0c09a"/>
  <ellipse cx="255" cy="262" rx="14" ry="12" fill="#f0c09a"/>

  <!-- 몸체 -->
  <ellipse cx="200" cy="490" rx="105" ry="52" fill="#fff0f5"/>

  <!-- 귀 -->
  <ellipse cx="88"  cy="352" rx="22" ry="26" fill="#f0c09a"/>
  <ellipse cx="312" cy="352" rx="22" ry="26" fill="#f0c09a"/>
  <ellipse cx="88"  cy="352" rx="13" ry="16" fill="#e8a880" opacity="0.4"/>
  <ellipse cx="312" cy="352" rx="13" ry="16" fill="#e8a880" opacity="0.4"/>

  <!-- 얼굴 -->
  <ellipse cx="200" cy="350" rx="114" ry="120" fill="url(#sk)"/>

  <!-- 머리카락 -->
  <ellipse cx="200" cy="237" rx="111" ry="40" fill="#8b5e3c"/>
  <path d="M86 304 Q90 220 200 213 Q310 220 314 304 Q283 256 200 252 Q117 256 86 304Z" fill="#8b5e3c"/>

  <!-- 생일 모자 -->
  <polygon points="200,168 162,252 238,252" fill="#f9a0b0"/>
  <polygon points="200,168 168,232 196,244" fill="#e07080" opacity="0.25"/>
  <circle cx="200" cy="168" r="12" fill="#fde8a0" stroke="#fdd060" stroke-width="2"/>
  <circle cx="188" cy="210" r="3" fill="white" opacity="0.7"/>
  <circle cx="210" cy="222" r="3" fill="white" opacity="0.7"/>
  <circle cx="198" cy="238" r="3" fill="white" opacity="0.7"/>
  <!-- 모자 폼폼 -->
  <circle cx="200" cy="156" r="14" fill="#fde8a0"/>
  <circle cx="193" cy="149" r="6"  fill="#fdd060" opacity="0.7"/>

  <!-- 볼 블러시 -->
  <ellipse cx="130" cy="377" rx="33" ry="20" fill="url(#bl)"/>
  <ellipse cx="270" cy="377" rx="33" ry="20" fill="url(#bl)"/>

  <!-- 왼쪽 눈 -->
  <ellipse cx="156" cy="337" rx="27" ry="25" fill="white"/>
  <ellipse cx="157" cy="339" rx="19" ry="20" fill="url(#ey)"/>
  <ellipse cx="157" cy="339" rx="12" ry="13" fill="#2a1510"/>
  <circle  cx="166" cy="331" r="7"  fill="white"/>
  <circle  cx="151" cy="343" r="3"  fill="white" opacity="0.5"/>
  <path d="M131 328 Q156 316 182 328" stroke="#8b5e3c" stroke-width="2.5" fill="none" stroke-linecap="round"/>

  <!-- 오른쪽 눈 -->
  <ellipse cx="244" cy="337" rx="27" ry="25" fill="white"/>
  <ellipse cx="245" cy="339" rx="19" ry="20" fill="url(#ey)"/>
  <ellipse cx="245" cy="339" rx="12" ry="13" fill="#2a1510"/>
  <circle  cx="254" cy="331" r="7"  fill="white"/>
  <circle  cx="239" cy="343" r="3"  fill="white" opacity="0.5"/>
  <path d="M219 328 Q244 316 270 328" stroke="#8b5e3c" stroke-width="2.5" fill="none" stroke-linecap="round"/>

  <!-- 눈썹 -->
  <path d="M134 311 Q156 302 178 308" stroke="#8b5e3c" stroke-width="3" fill="none" stroke-linecap="round"/>
  <path d="M222 308 Q244 302 266 311" stroke="#8b5e3c" stroke-width="3" fill="none" stroke-linecap="round"/>

  <!-- 코 -->
  <ellipse cx="200" cy="380" rx="11" ry="7" fill="#e8a080" opacity="0.3"/>

  <!-- 입 (크게 웃는) -->
  <path d="M168 402 Q200 432 232 402" stroke="#e07575" stroke-width="4" fill="none" stroke-linecap="round"/>
  <path d="M172 406 Q200 430 228 406 Q200 422 172 406Z" fill="#f09090" opacity="0.35"/>
  <path d="M180 406 Q200 422 220 406" fill="white" opacity="0.45"/>

  <text x="200" y="492" text-anchor="middle" font-family="serif" font-size="14" fill="#c09020" opacity="0.85">🎈 생일 축하해! 🎈</text>
</svg>
